<svg width="51" height="51" viewBox="0 0 51 51" fill="none" xmlns="http://www.w3.org/2000/svg">
<g id="solar-panel-large">
<path id="Vector" d="M7.21476 13.0546H13.4648V6.80461H7.21476V13.0546ZM17.6314 6.80461V13.0546H23.8814V6.80461H17.6314ZM28.0481 6.80461V13.0546H34.2981V6.80461H28.0481ZM38.4648 6.80461V13.0546H44.7148V6.80461H38.4648ZM44.7148 17.2213H38.4648V23.4713H44.7148V17.2213ZM44.7148 27.6379H38.4648V33.8879H44.7148V27.6379ZM34.2981 33.8879V27.6379H28.0481V33.8879H34.2981ZM23.8814 33.8879V27.6379H17.6314V33.8879H23.8814ZM13.4648 33.8879V27.6379H7.21476V33.8879H13.4648ZM7.21476 23.4713H13.4648V17.2213H7.21476V23.4713ZM28.0481 17.2213V23.4713H34.2981V17.2213H28.0481ZM17.6314 17.2213V23.4713H23.8814V17.2213H17.6314ZM7.21476 2.63794H44.7148C45.8198 2.63794 46.8796 3.07693 47.661 3.85833C48.4424 4.63973 48.8814 5.69954 48.8814 6.80461V33.8879C48.8814 34.993 48.4424 36.0528 47.661 36.8342C46.8796 37.6156 45.8198 38.0546 44.7148 38.0546H32.2148V44.3046H38.4648V48.4713H28.0481V38.0546H23.8814V48.4713H13.4648V44.3046H19.7148V38.0546H7.21476C6.10969 38.0546 5.04989 37.6156 4.26848 36.8342C3.48708 36.0528 3.0481 34.993 3.0481 33.8879V6.80461C3.0481 5.69954 3.48708 4.63973 4.26848 3.85833C5.04989 3.07693 6.10969 2.63794 7.21476 2.63794Z" fill="url(#paint0_linear_577_670)"/>
</g>
<defs>
<linearGradient id="paint0_linear_577_670" x1="25.9648" y1="2.63794" x2="25.9648" y2="48.4713" gradientUnits="userSpaceOnUse">
<stop stop-color="white"/>
<stop offset="1" stop-color="#BBCEFF"/>
</linearGradient>
</defs>
</svg>
