<svg width="51" height="50" viewBox="0 0 51 50" fill="none" xmlns="http://www.w3.org/2000/svg">
<g id="solar-power-variant-outline">
<path id="Vector" d="M42.6316 25.0001H9.29826L5.13159 45.8334H46.7983L42.6316 25.0001ZM39.2149 29.1667L40.0483 33.3334H28.0483V29.1667H39.2149ZM23.8816 29.1667V33.3334H11.8816L12.7149 29.1667H23.8816ZM11.0483 37.5001H23.8816V41.6667H10.2149L11.0483 37.5001ZM28.0483 41.6667V37.5001H40.8816L41.7149 41.6667H28.0483ZM23.8816 16.6667H28.0483V22.9167H23.8816V16.6667ZM33.7983 15.0209L36.7566 12.0626L41.1733 16.4792L38.2358 19.4376L33.7983 15.0209ZM10.7774 16.4792L15.1941 12.0626L18.1316 15.0209L13.7149 19.4376L10.7774 16.4792ZM7.21493 4.16675H13.4649V8.33341H7.21493V4.16675ZM38.4649 4.16675H44.7149V8.33341H38.4649V4.16675ZM25.9649 14.5834C31.7149 14.5834 36.3816 9.91675 36.3816 4.16675H32.2149C32.2149 7.60425 29.4024 10.4167 25.9649 10.4167C22.5274 10.4167 19.7149 7.60425 19.7149 4.16675H15.5483C15.5483 9.91675 20.2149 14.5834 25.9649 14.5834Z" fill="url(#paint0_linear_577_664)"/>
</g>
<defs>
<linearGradient id="paint0_linear_577_664" x1="25.9649" y1="4.16675" x2="25.9649" y2="45.8334" gradientUnits="userSpaceOnUse">
<stop stop-color="white"/>
<stop offset="1" stop-color="#BBCEFF"/>
</linearGradient>
</defs>
</svg>
