<svg width="27" height="27" viewBox="0 0 27 27" fill="none" xmlns="http://www.w3.org/2000/svg">
<g id="Group">
<path id="Vector" d="M13.5 2.84102C17.107 2.84102 17.5342 2.85625 18.9527 2.91719C20.2711 2.97305 20.983 3.18633 21.4576 3.36406C22.0852 3.59766 22.5387 3.88203 23.008 4.33398C23.4826 4.79102 23.7727 5.22266 24.0152 5.82695C24.1998 6.28398 24.4213 6.97461 24.4793 8.23906C24.5426 9.61016 24.5584 10.0215 24.5584 13.4898C24.5584 16.9633 24.5426 17.3746 24.4793 18.7406C24.4213 20.0102 24.1998 20.6957 24.0152 21.1527C23.7727 21.757 23.4773 22.1938 23.008 22.6457C22.5334 23.1027 22.0852 23.382 21.4576 23.6156C20.983 23.7934 20.2658 24.0066 18.9527 24.0625C17.5289 24.1234 17.1018 24.1387 13.5 24.1387C9.89297 24.1387 9.46582 24.1234 8.04727 24.0625C6.72891 24.0066 6.01699 23.7934 5.54238 23.6156C4.91484 23.382 4.46133 23.0977 3.99199 22.6457C3.51738 22.1887 3.22734 21.757 2.98477 21.1527C2.8002 20.6957 2.57871 20.0051 2.5207 18.7406C2.45742 17.3695 2.4416 16.9582 2.4416 13.4898C2.4416 10.0164 2.45742 9.60508 2.5207 8.23906C2.57871 6.96953 2.8002 6.28398 2.98477 5.82695C3.22734 5.22266 3.52266 4.78594 3.99199 4.33398C4.4666 3.87695 4.91484 3.59766 5.54238 3.36406C6.01699 3.18633 6.73418 2.97305 8.04727 2.91719C9.46582 2.85625 9.89297 2.84102 13.5 2.84102ZM13.5 0.5C9.83496 0.5 9.37617 0.515234 7.93652 0.576172C6.50215 0.637109 5.51602 0.860547 4.66172 1.18047C3.77051 1.51562 3.01641 1.95742 2.26758 2.68359C1.51348 3.40469 1.05469 4.13086 0.706641 4.98398C0.374414 5.81172 0.142383 6.75625 0.0791016 8.1375C0.0158203 9.52891 0 9.9707 0 13.5C0 17.0293 0.0158203 17.4711 0.0791016 18.8574C0.142383 20.2387 0.374414 21.1883 0.706641 22.0109C1.05469 22.8691 1.51348 23.5953 2.26758 24.3164C3.01641 25.0375 3.77051 25.4844 4.65645 25.8145C5.51602 26.1344 6.49688 26.3578 7.93125 26.4188C9.3709 26.4797 9.82969 26.4949 13.4947 26.4949C17.1598 26.4949 17.6186 26.4797 19.0582 26.4188C20.4926 26.3578 21.4787 26.1344 22.333 25.8145C23.2189 25.4844 23.973 25.0375 24.7219 24.3164C25.4707 23.5953 25.9348 22.8691 26.2775 22.016C26.6098 21.1883 26.8418 20.2438 26.9051 18.8625C26.9684 17.4762 26.9842 17.0344 26.9842 13.5051C26.9842 9.97578 26.9684 9.53399 26.9051 8.14766C26.8418 6.76641 26.6098 5.8168 26.2775 4.99414C25.9453 4.13086 25.4865 3.40469 24.7324 2.68359C23.9836 1.9625 23.2295 1.51562 22.3436 1.18555C21.484 0.865625 20.5031 0.642188 19.0688 0.58125C17.6238 0.515234 17.165 0.5 13.5 0.5Z" fill="white"/>
<path id="Vector_2" d="M13.5 6.82227C9.67148 6.82227 6.56543 9.81328 6.56543 13.5C6.56543 17.1867 9.67148 20.1777 13.5 20.1777C17.3285 20.1777 20.4346 17.1867 20.4346 13.5C20.4346 9.81328 17.3285 6.82227 13.5 6.82227ZM13.5 17.8316C11.0162 17.8316 9.00176 15.8918 9.00176 13.5C9.00176 11.1082 11.0162 9.16836 13.5 9.16836C15.9838 9.16836 17.9982 11.1082 17.9982 13.5C17.9982 15.8918 15.9838 17.8316 13.5 17.8316Z" fill="white"/>
<path id="Vector_3" d="M22.3277 6.55801C22.3277 7.42129 21.6 8.117 20.7088 8.117C19.8123 8.117 19.0898 7.41621 19.0898 6.55801C19.0898 5.69473 19.8176 4.99902 20.7088 4.99902C21.6 4.99902 22.3277 5.69981 22.3277 6.55801Z" fill="white"/>
</g>
</svg>
