<svg width="27" height="27" viewBox="0 0 27 27" fill="none" xmlns="http://www.w3.org/2000/svg">
<g id="Facebook - Negative" clip-path="url(#clip0_419_1548)">
<path id="Vector" d="M27 13.5C27 6.32029 20.9558 0.5 13.5 0.5C6.04415 0.5 0 6.32029 0 13.5C0 19.9886 4.93673 25.3668 11.3906 26.3421V17.2578H7.96289V13.5H11.3906V10.6359C11.3906 7.37781 13.4061 5.57812 16.4898 5.57812C17.9663 5.57812 19.5117 5.83203 19.5117 5.83203V9.03125H17.8095C16.1325 9.03125 15.6094 10.0334 15.6094 11.0625V13.5H19.3535L18.755 17.2578H15.6094V26.3421C22.0633 25.3668 27 19.9886 27 13.5Z" fill="white"/>
</g>
<defs>
<clipPath id="clip0_419_1548">
<rect width="27" height="26" fill="white" transform="translate(0 0.5)"/>
</clipPath>
</defs>
</svg>
