<svg width="27" height="27" viewBox="0 0 27 27" fill="none" xmlns="http://www.w3.org/2000/svg">
<g id="Group">
<path id="Vector" d="M25.0014 0.5H1.99336C0.891211 0.5 0 1.33789 0 2.37383V24.6211C0 25.657 0.891211 26.5 1.99336 26.5H25.0014C26.1035 26.5 27 25.657 27 24.6262V2.37383C27 1.33789 26.1035 0.5 25.0014 0.5ZM8.01035 22.6559H4.00254V10.2449H8.01035V22.6559ZM6.00645 8.55391C4.71973 8.55391 3.68086 7.55352 3.68086 6.31953C3.68086 5.08555 4.71973 4.08516 6.00645 4.08516C7.28789 4.08516 8.32676 5.08555 8.32676 6.31953C8.32676 7.54844 7.28789 8.55391 6.00645 8.55391ZM23.008 22.6559H19.0055V16.623C19.0055 15.1859 18.9791 13.3324 16.9225 13.3324C14.8395 13.3324 14.523 14.9016 14.523 16.5215V22.6559H10.5258V10.2449H14.3648V11.941H14.4176C14.9502 10.966 16.258 9.93516 18.2039 9.93516C22.2592 9.93516 23.008 12.5047 23.008 15.8461V22.6559Z" fill="white"/>
</g>
</svg>
