<svg width="27" height="27" viewBox="0 0 27 27" fill="none" xmlns="http://www.w3.org/2000/svg">
<g id="Twitter - Negative" clip-path="url(#clip0_419_1550)">
<path id="Vector" d="M8.49393 24.0623C18.6801 24.0623 24.2531 15.9337 24.2531 8.88683C24.2531 8.65832 24.2478 8.42472 24.2372 8.19621C25.3214 7.44123 26.2569 6.50609 27 5.43472C25.9903 5.8673 24.9183 6.14981 23.8206 6.27261C24.9764 5.60547 25.8418 4.55741 26.2564 3.32273C25.1691 3.94325 23.98 4.38098 22.7401 4.61714C21.9047 3.76234 20.8001 3.19636 19.5971 3.00671C18.3942 2.81705 17.1598 3.01429 16.085 3.56792C15.0101 4.12155 14.1545 5.00075 13.6506 6.06957C13.1466 7.13839 13.0224 8.33732 13.297 9.48097C11.0953 9.37458 8.94143 8.82383 6.97498 7.86442C5.00853 6.90502 3.2734 5.55837 1.88209 3.91179C1.17495 5.08583 0.958564 6.4751 1.27691 7.79725C1.59526 9.1194 2.42445 10.2752 3.59596 11.0298C2.71646 11.0029 1.85622 10.7749 1.08633 10.3646V10.4306C1.08554 11.6626 1.52786 12.857 2.3381 13.8105C3.14834 14.764 4.27649 15.4179 5.53078 15.6611C4.71606 15.8757 3.86098 15.907 3.0317 15.7525C3.38564 16.812 4.07427 17.7388 5.00149 18.4033C5.92871 19.0679 7.04826 19.4371 8.20389 19.4595C6.24198 20.9435 3.81845 21.7485 1.32363 21.7446C0.881198 21.744 0.439199 21.7179 0 21.6664C2.53446 23.2322 5.48272 24.0638 8.49393 24.0623Z" fill="white"/>
</g>
<defs>
<clipPath id="clip0_419_1550">
<rect width="27" height="26" fill="white" transform="translate(0 0.5)"/>
</clipPath>
</defs>
</svg>
