<svg width="102" height="20" viewBox="0 0 102 20" fill="none" xmlns="http://www.w3.org/2000/svg">
<g id="logo 1" clip-path="url(#clip0_2220_38)">
<g id="Clip path group">
<mask id="mask0_2220_38" style="mask-type:luminance" maskUnits="userSpaceOnUse" x="0" y="0" width="102" height="20">
<g id="clip0_813_34">
<path id="Vector" d="M102 0H0V20H102V0Z" fill="white"/>
</g>
</mask>
<g mask="url(#mask0_2220_38)">
<g id="Group">
<path id="Vector_2" fill-rule="evenodd" clip-rule="evenodd" d="M37.4 13.95L38.4 16.55H40.25L33.8 0L27.35 16.55H29.2L30.2 13.95L30.7 12.7L33.8 4.7L36.95 12.7L37.4 13.95ZM8.45 4.8C8.55 4.9 8.55 5.05 8.55 5.35V7.4H10.4V5.1C10.4 4 9.85 3.45 8.75 3.45H1.65C0.55 3.45 0 4 0 5.1V14.9C0 16 0.55 16.55 1.65 16.55H8.75C9.85 16.55 10.4 16 10.4 14.9V9.8H5.05V11.05H8.6V14.65C8.6 14.95 8.55 15.1 8.45 15.2C8.35 15.3 8.2 15.3 7.9 15.3H2.5C2.25 15.3 2.05 15.25 1.95 15.2C1.85 15.1 1.8 14.95 1.8 14.65V5.35C1.8 5.05 1.85 4.9 1.95 4.8C2.05 4.75 2.25 4.7 2.5 4.7H7.9C8.2 4.7 8.4 4.75 8.45 4.8ZM23.05 16.55L20.1 11.85H16.05V16.55H14.2V3.45H23.2C24.3 3.45 24.85 4 24.85 5.1V10.2C24.85 11.3 24.3 11.85 23.2 11.85H22L24.95 16.55H23.05ZM23 4.8C22.9 4.7 22.75 4.7 22.45 4.7H16.05V10.6H22.45C22.75 10.6 22.9 10.55 23 10.45C23.1 10.35 23.1 10.2 23.1 9.9V5.3C23.1 5.05 23.05 4.9 23 4.8ZM48.2 15.3L52.85 3.45H54.7L48.25 20L41.8 3.45H43.65L48.2 15.3ZM57.8 16.55V3.45H59.65V16.55H57.8ZM65.95 10.45V15.3H73.3V16.55H64.1V3.45H73V4.7H65.95V9.25H72.15V10.5H65.95V10.45ZM78.45 3.45L85.75 14.3V3.45H87.45V16.55H85.6L78.2 5.6V16.55H76.5V3.45H78.45ZM94.55 16.55V4.7H89.7V3.45H101.2V4.7H96.35V16.55H94.55Z" fill="white"/>
</g>
</g>
</g>
</g>
<defs>
<clipPath id="clip0_2220_38">
<rect width="102" height="20" fill="white"/>
</clipPath>
</defs>
</svg>
