<svg width="36" height="21" viewBox="0 0 36 21" fill="none" xmlns="http://www.w3.org/2000/svg">
<g id="Frame" clip-path="url(#clip0_160_1263)">
<g id="Clip path group">
<mask id="mask0_160_1263" style="mask-type:luminance" maskUnits="userSpaceOnUse" x="-1" y="0" width="37" height="21">
<g id="clip0_45_180">
<path id="Vector" d="M36 0.5H-0.5625V20.5H36V0.5Z" fill="white"/>
</g>
</mask>
<g mask="url(#mask0_160_1263)">
<g id="Group">
<path id="Vector_2" d="M36 0.5H-0.5625V20.5H36V0.5Z" fill="#BB133E"/>
<path id="Vector_3" d="M-0.5625 2.80762H36M-0.5625 5.88454H36M-0.5625 8.96147H36M-0.5625 12.0384H36M-0.5625 15.1153H36M-0.5625 18.1922H36" stroke="white" stroke-width="1.4597"/>
<path id="Vector_4" d="M14.0625 0.5H-0.5625V11.2692H14.0625V0.5Z" fill="#002664"/>
<path id="Vector_5" d="M0.476532 1.00391L0.824915 2.11826L-0.0871582 1.42955H1.04022L0.128151 2.11826L0.476532 1.00391Z" fill="white"/>
<path id="Vector_6" d="M2.40109 1.00391L2.74948 2.11826L1.8374 1.42955H2.96478L2.05271 2.11826L2.40109 1.00391Z" fill="white"/>
<path id="Vector_7" d="M4.3254 1.00391L4.6738 2.11826L3.76172 1.42955H4.88909L3.97701 2.11826L4.3254 1.00391Z" fill="white"/>
<path id="Vector_8" d="M6.24948 1.00391L6.59787 2.11826L5.68579 1.42955H6.81316L5.90108 2.11826L6.24948 1.00391Z" fill="white"/>
<path id="Vector_9" d="M8.17404 1.00391L8.52243 2.11826L7.61035 1.42955H8.73772L7.82564 2.11826L8.17404 1.00391Z" fill="white"/>
<path id="Vector_10" d="M10.0981 1.00391L10.4465 2.11826L9.53442 1.42955H10.6618L9.74971 2.11826L10.0981 1.00391Z" fill="white"/>
<path id="Vector_11" d="M12.0227 1.00391L12.3711 2.11826L11.459 1.42955H12.5864L11.6743 2.11826L12.0227 1.00391Z" fill="white"/>
<path id="Vector_12" d="M1.43893 2.42383L1.78732 3.53819L0.875244 2.84947H2.00263L1.09055 3.53819L1.43893 2.42383Z" fill="white"/>
<path id="Vector_13" d="M3.36301 2.42383L3.7114 3.53819L2.79932 2.84947H3.92669L3.01461 3.53819L3.36301 2.42383Z" fill="white"/>
<path id="Vector_14" d="M5.28756 2.42383L5.63596 3.53819L4.72388 2.84947H5.85125L4.93917 3.53819L5.28756 2.42383Z" fill="white"/>
<path id="Vector_15" d="M7.21163 2.42383L7.56003 3.53819L6.64795 2.84947H7.77532L6.86324 3.53819L7.21163 2.42383Z" fill="white"/>
<path id="Vector_16" d="M9.13619 2.42383L9.48459 3.53819L8.57251 2.84947H9.69988L8.7878 3.53819L9.13619 2.42383Z" fill="white"/>
<path id="Vector_17" d="M11.0605 2.42383L11.4089 3.53819L10.4968 2.84947H11.6242L10.7121 3.53819L11.0605 2.42383Z" fill="white"/>
<path id="Vector_18" d="M12.9848 2.42383L13.3332 3.53819L12.4211 2.84947H13.5485L12.6364 3.53819L12.9848 2.42383Z" fill="white"/>
<path id="Vector_19" d="M0.476532 3.84375L0.824915 4.95812L-0.0871582 4.26938H1.04022L0.128151 4.95812L0.476532 3.84375Z" fill="white"/>
<path id="Vector_20" d="M2.40109 3.84375L2.74948 4.95812L1.8374 4.26938H2.96478L2.05271 4.95812L2.40109 3.84375Z" fill="white"/>
<path id="Vector_21" d="M4.3254 3.84375L4.6738 4.95812L3.76172 4.26938H4.88909L3.97701 4.95812L4.3254 3.84375Z" fill="white"/>
<path id="Vector_22" d="M6.24948 3.84375L6.59787 4.95812L5.68579 4.26938H6.81316L5.90108 4.95812L6.24948 3.84375Z" fill="white"/>
<path id="Vector_23" d="M8.17404 3.84375L8.52243 4.95812L7.61035 4.26938H8.73772L7.82564 4.95812L8.17404 3.84375Z" fill="white"/>
<path id="Vector_24" d="M10.0981 3.84375L10.4465 4.95812L9.53442 4.26938H10.6618L9.74971 4.95812L10.0981 3.84375Z" fill="white"/>
<path id="Vector_25" d="M12.0227 3.84375L12.3711 4.95812L11.459 4.26938H12.5864L11.6743 4.95812L12.0227 3.84375Z" fill="white"/>
<path id="Vector_26" d="M1.43893 5.26367L1.78732 6.37804L0.875244 5.6893H2.00263L1.09055 6.37804L1.43893 5.26367Z" fill="white"/>
<path id="Vector_27" d="M3.36301 5.26367L3.7114 6.37804L2.79932 5.6893H3.92669L3.01461 6.37804L3.36301 5.26367Z" fill="white"/>
<path id="Vector_28" d="M5.28756 5.26367L5.63596 6.37804L4.72388 5.6893H5.85125L4.93917 6.37804L5.28756 5.26367Z" fill="white"/>
<path id="Vector_29" d="M7.21163 5.26367L7.56003 6.37804L6.64795 5.6893H7.77532L6.86324 6.37804L7.21163 5.26367Z" fill="white"/>
<path id="Vector_30" d="M9.13619 5.26367L9.48459 6.37804L8.57251 5.6893H9.69988L8.7878 6.37804L9.13619 5.26367Z" fill="white"/>
<path id="Vector_31" d="M11.0605 5.26367L11.4089 6.37804L10.4968 5.6893H11.6242L10.7121 6.37804L11.0605 5.26367Z" fill="white"/>
<path id="Vector_32" d="M12.9848 5.26367L13.3332 6.37804L12.4211 5.6893H13.5485L12.6364 6.37804L12.9848 5.26367Z" fill="white"/>
<path id="Vector_33" d="M0.476532 6.68359L0.824915 7.79796L-0.0871582 7.10922H1.04022L0.128151 7.79796L0.476532 6.68359Z" fill="white"/>
<path id="Vector_34" d="M2.40109 6.68359L2.74948 7.79796L1.8374 7.10922H2.96478L2.05271 7.79796L2.40109 6.68359Z" fill="white"/>
<path id="Vector_35" d="M4.3254 6.68359L4.6738 7.79796L3.76172 7.10922H4.88909L3.97701 7.79796L4.3254 6.68359Z" fill="white"/>
<path id="Vector_36" d="M6.24948 6.68359L6.59787 7.79796L5.68579 7.10922H6.81316L5.90108 7.79796L6.24948 6.68359Z" fill="white"/>
<path id="Vector_37" d="M8.17404 6.68359L8.52243 7.79796L7.61035 7.10922H8.73772L7.82564 7.79796L8.17404 6.68359Z" fill="white"/>
<path id="Vector_38" d="M10.0981 6.68359L10.4465 7.79796L9.53442 7.10922H10.6618L9.74971 7.79796L10.0981 6.68359Z" fill="white"/>
<path id="Vector_39" d="M12.0227 6.68359L12.3711 7.79796L11.459 7.10922H12.5864L11.6743 7.79796L12.0227 6.68359Z" fill="white"/>
<path id="Vector_40" d="M1.43893 8.10352L1.78732 9.21788L0.875244 8.52915H2.00263L1.09055 9.21788L1.43893 8.10352Z" fill="white"/>
<path id="Vector_41" d="M3.36301 8.10352L3.7114 9.21788L2.79932 8.52915H3.92669L3.01461 9.21788L3.36301 8.10352Z" fill="white"/>
<path id="Vector_42" d="M5.28756 8.10352L5.63596 9.21788L4.72388 8.52915H5.85125L4.93917 9.21788L5.28756 8.10352Z" fill="white"/>
<path id="Vector_43" d="M7.21163 8.10352L7.56003 9.21788L6.64795 8.52915H7.77532L6.86324 9.21788L7.21163 8.10352Z" fill="white"/>
<path id="Vector_44" d="M9.13619 8.10352L9.48459 9.21788L8.57251 8.52915H9.69988L8.7878 9.21788L9.13619 8.10352Z" fill="white"/>
<path id="Vector_45" d="M11.0605 8.10352L11.4089 9.21788L10.4968 8.52915H11.6242L10.7121 9.21788L11.0605 8.10352Z" fill="white"/>
<path id="Vector_46" d="M12.9848 8.10352L13.3332 9.21788L12.4211 8.52915H13.5485L12.6364 9.21788L12.9848 8.10352Z" fill="white"/>
<path id="Vector_47" d="M0.476532 9.52441L0.824915 10.6388L-0.0871582 9.95005H1.04022L0.128151 10.6388L0.476532 9.52441Z" fill="white"/>
<path id="Vector_48" d="M2.40109 9.52441L2.74948 10.6388L1.8374 9.95005H2.96478L2.05271 10.6388L2.40109 9.52441Z" fill="white"/>
<path id="Vector_49" d="M4.3254 9.52441L4.6738 10.6388L3.76172 9.95005H4.88909L3.97701 10.6388L4.3254 9.52441Z" fill="white"/>
<path id="Vector_50" d="M6.24948 9.52441L6.59787 10.6388L5.68579 9.95005H6.81316L5.90108 10.6388L6.24948 9.52441Z" fill="white"/>
<path id="Vector_51" d="M8.17404 9.52441L8.52243 10.6388L7.61035 9.95005H8.73772L7.82564 10.6388L8.17404 9.52441Z" fill="white"/>
<path id="Vector_52" d="M10.0981 9.52441L10.4465 10.6388L9.53442 9.95005H10.6618L9.74971 10.6388L10.0981 9.52441Z" fill="white"/>
<path id="Vector_53" d="M12.0227 9.52441L12.3711 10.6388L11.459 9.95005H12.5864L11.6743 10.6388L12.0227 9.52441Z" fill="white"/>
</g>
</g>
</g>
</g>
<defs>
<clipPath id="clip0_160_1263">
<rect width="36" height="20" fill="white" transform="translate(0 0.5)"/>
</clipPath>
</defs>
</svg>
